<?xml version="1.0" encoding="UTF-8"?> <svg xmlns="http://www.w3.org/2000/svg" viewBox="0 0 279.76 300"><defs><style>.cls-1{fill:#403f4c;}</style></defs><title>Asset 3</title><g id="Layer_2" data-name="Layer 2"><g id="Layer_1-2" data-name="Layer 1"><path class="cls-1" d="M245.57,218.34l-23.84,23.83a6,6,0,1,0,8.43,8.43L254,226.76a6,6,0,0,0-8.43-8.42Z"></path><path class="cls-1" d="M273.8,124a6,6,0,0,0-6,6v6.15a5.81,5.81,0,0,0-.93.06l-1.83.3a123.43,123.43,0,0,0-26-67.46l6.54-4.72a6.8,6.8,0,0,0,.7-.61l4.35,4.34a6,6,0,1,0,8.42-8.43L235.25,35.8a6,6,0,0,0-8.43,8.42l4.34,4.35a6,6,0,0,0-.61.71l-4.21,5.84a123.6,123.6,0,0,0-75.76-33.35L152,12.85a5.81,5.81,0,0,0,.06-.93h6.15a6,6,0,1,0,0-11.92H124.52a6,6,0,1,0,0,11.92h6.14a5.82,5.82,0,0,0,.07.93l1.44,8.92A123.64,123.64,0,0,0,55.51,55.93l-7-9.63a5.19,5.19,0,0,0-.61-.71l4.34-4.34a6,6,0,1,0-8.42-8.43L20,56.65a6,6,0,1,0,8.43,8.43l4.34-4.34a6,6,0,0,0,.71.61L43.83,68.8A123.53,123.53,0,0,0,17.3,143.85L6.91,142.17A6,6,0,0,0,0,148.06v9.52a6,6,0,0,0,6,6,6.19,6.19,0,0,0,1-.08l11.41-1.84a123.51,123.51,0,0,0,29.1,64.92l-1.05.76a6,6,0,0,0-.72,9l6.73,6.74a6,6,0,0,0,4.21,1.74,3.85,3.85,0,0,0,.48,0,6,6,0,0,0,4.36-2.45l.88-1.23a124.06,124.06,0,0,0,202.55-84l2.05.33a5.84,5.84,0,0,0,.93.08v6.13a6,6,0,1,0,11.92,0V130A6,6,0,0,0,273.8,124Zm-103,3.43c-4.72,4.72-12.58,4.51-17.56-.47s-5.19-12.84-.47-17.56,12.58-4.51,17.56.47S175.57,122.75,170.85,127.47Zm45.5,43.58c-5.84,5.84-14.54,6.6-19.44,1.69s-4.15-13.6,1.69-19.44,14.54-6.59,19.44-1.69S222.19,165.21,216.35,171.05ZM203,117.85c-8-8-8.5-20.31-1.22-27.6s19.65-6.74,27.61,1.21,8.5,20.32,1.21,27.61S211,125.81,203,117.85Z"></path><path class="cls-1" d="M158.23,291.06H124.52a4.47,4.47,0,0,0,0,8.94h33.71a4.47,4.47,0,0,0,0-8.94Z"></path><path class="cls-1" d="M158.23,275.77H124.52a4.47,4.47,0,0,0,0,8.94h33.71a4.47,4.47,0,0,0,0-8.94Z"></path><circle class="cls-1" cx="141.37" cy="241.54" r="24.3"></circle></g></g></svg> 