<svg id="Layer_1" data-name="Layer 1" xmlns="http://www.w3.org/2000/svg" viewBox="0 0 496.3 107.5"><defs><style>.cls-1{fill:#403f4c;}</style></defs><title>testnew-logo1</title><g id="raleway_then_moved_tops_of_b_d_and_t_by_20_px_i_beleive" data-name="raleway then moved tops of b d and t by 20 px i beleive"><path class="cls-1" d="M20.3,80.4a18.85,18.85,0,0,1-10.1-2.9,23.14,23.14,0,0,1-7.4-7.2v9.2H0V24H3V44.5a29.32,29.32,0,0,1,7.8-7.9,17.76,17.76,0,0,1,10.3-3,17.87,17.87,0,0,1,8.8,2.1,21.1,21.1,0,0,1,6.5,5.4,25,25,0,0,1,4.1,7.5A24.55,24.55,0,0,1,42,57.1a24.16,24.16,0,0,1-1.7,8.8,23.61,23.61,0,0,1-4.6,7.4,22.92,22.92,0,0,1-6.9,5.1A18.31,18.31,0,0,1,20.3,80.4Zm-.4-2.8a17.08,17.08,0,0,0,7.7-1.8,18.52,18.52,0,0,0,6.1-4.7,21.22,21.22,0,0,0,4-6.6A21.65,21.65,0,0,0,39.1,57a26,26,0,0,0-1.3-7.8A19,19,0,0,0,34,42.6,18.46,18.46,0,0,0,28.2,38a15,15,0,0,0-7.5-1.7,16.47,16.47,0,0,0-5.8,1A18.32,18.32,0,0,0,10,40.1a25.22,25.22,0,0,0-4,4,24.07,24.07,0,0,0-3,4.8V64.6a10.38,10.38,0,0,0,2,5,16,16,0,0,0,4.1,4.1,19.75,19.75,0,0,0,5.4,2.8A14.08,14.08,0,0,0,19.9,77.6Z"/><path class="cls-1" d="M77.2,37a18,18,0,0,0-10.9,4,18.76,18.76,0,0,0-6.4,10.1V79.6h-3V34.2h2.9V45.7a21.75,21.75,0,0,1,6.3-7.8,17.14,17.14,0,0,1,8.4-3.6,8.6,8.6,0,0,1,1.6-.1h1.2V37Z"/><path class="cls-1" d="M153.8,80.4a16.16,16.16,0,0,1-5.8-1.1,15.66,15.66,0,0,1-4.7-3,12.55,12.55,0,0,1-3.1-4.4,14.59,14.59,0,0,1-1.1-5.5,11,11,0,0,1,1.4-5.3,12.74,12.74,0,0,1,3.9-4.1,21.06,21.06,0,0,1,5.9-2.7,27.63,27.63,0,0,1,7.5-1,49,49,0,0,1,7.7.6,42.31,42.31,0,0,1,7,1.8V51q0-6.75-3.9-10.8c-2.6-2.7-6.1-4-10.4-4a19.51,19.51,0,0,0-7.1,1.4,30.36,30.36,0,0,0-7.5,4.1l-1.4-2.2c5.8-3.9,11.2-5.9,16.1-5.9,5.3,0,9.4,1.6,12.5,4.7s4.6,7.4,4.6,12.9V74.8c0,1.3.5,1.9,1.6,1.9v2.8c-.2,0-.3.1-.5.1h-.4a3.41,3.41,0,0,1-2.5-1.1,3.78,3.78,0,0,1-1-2.7v-4a20,20,0,0,1-8.1,6.3A24.84,24.84,0,0,1,153.8,80.4Zm.3-2.5a23.72,23.72,0,0,0,6.5-.9,21.54,21.54,0,0,0,5.9-2.4,16.12,16.12,0,0,0,4.3-3.5,7.43,7.43,0,0,0,1.7-4.3V58.3A39.61,39.61,0,0,0,158,55.7a23.64,23.64,0,0,0-6.5.8,16.44,16.44,0,0,0-5.1,2.2,9,9,0,0,0-3.3,3.4,8.56,8.56,0,0,0-1.2,4.4,9.88,9.88,0,0,0,1,4.5,11.83,11.83,0,0,0,2.6,3.7,11.66,11.66,0,0,0,3.8,2.4A15.58,15.58,0,0,0,154.1,77.9Z"/><path class="cls-1" d="M211.5,80.4a20.16,20.16,0,0,1-8.7-2,22.35,22.35,0,0,1-6.9-5.3,22.65,22.65,0,0,1-4.5-7.4,23,23,0,0,1-1.6-8.6,25.12,25.12,0,0,1,1.6-9,24.68,24.68,0,0,1,4.4-7.5,20.55,20.55,0,0,1,6.6-5.1,18.78,18.78,0,0,1,8.4-1.9,18.36,18.36,0,0,1,5.7.9,23,23,0,0,1,5,2.4,27.86,27.86,0,0,1,4.2,3.5,25.89,25.89,0,0,1,3.2,4.2V24h3V74.8c0,1.3.5,1.9,1.6,1.9v2.8a1.7,1.7,0,0,1-.7.1,3.22,3.22,0,0,1-2.6-1.2,3.78,3.78,0,0,1-1-2.7V70.2a19,19,0,0,1-3.4,4.1,25.89,25.89,0,0,1-4.2,3.2,20.29,20.29,0,0,1-4.8,2A16.39,16.39,0,0,1,211.5,80.4Zm.4-2.8a16.64,16.64,0,0,0,5.4-1,27.66,27.66,0,0,0,5.4-2.8,18.6,18.6,0,0,0,4.2-4.2,10.38,10.38,0,0,0,2-5V49a16.76,16.76,0,0,0-2.9-5,20.44,20.44,0,0,0-4.3-4,23.29,23.29,0,0,0-5.2-2.7,16.16,16.16,0,0,0-5.4-1,17,17,0,0,0-7.6,1.8,18.78,18.78,0,0,0-5.8,4.7,23.82,23.82,0,0,0-3.7,6.6,21.69,21.69,0,0,0-1.3,7.6,20.81,20.81,0,0,0,1.5,7.8,19.34,19.34,0,0,0,4.1,6.5,18.94,18.94,0,0,0,6,4.5,17,17,0,0,0,7.6,1.8Z"/><path class="cls-1" d="M267.8,80.4a30.16,30.16,0,0,1-9.8-1.7,21.8,21.8,0,0,1-8-5.4l1.6-2a25.24,25.24,0,0,0,7.5,5,22.62,22.62,0,0,0,8.5,1.7,18.13,18.13,0,0,0,10.3-2.7,8.79,8.79,0,0,0,3.9-7.6,7.46,7.46,0,0,0-1-3.8,9.36,9.36,0,0,0-2.9-2.7,20,20,0,0,0-4.8-1.9c-1.9-.6-4-1.1-6.5-1.7s-4.7-1.1-6.5-1.7a20.7,20.7,0,0,1-4.6-2,6.86,6.86,0,0,1-2.7-2.9,11.17,11.17,0,0,1-.9-4.4,11.74,11.74,0,0,1,1.3-5.8,11.55,11.55,0,0,1,3.6-4,17,17,0,0,1,5.1-2.4,25.7,25.7,0,0,1,6.2-.8,21.6,21.6,0,0,1,9.4,1.8,14.5,14.5,0,0,1,5.8,4.6l-2,1.5a11.86,11.86,0,0,0-5.6-4,23.47,23.47,0,0,0-7.9-1.4,20.74,20.74,0,0,0-5,.6,11.66,11.66,0,0,0-4.1,1.8,9,9,0,0,0-3.9,7.7,8.42,8.42,0,0,0,.7,3.5,6.36,6.36,0,0,0,2.2,2.4,18,18,0,0,0,3.8,1.6c1.5.4,3.4.9,5.6,1.4,2.8.6,5.2,1.3,7.4,1.9a22.1,22.1,0,0,1,5.5,2.3,9.52,9.52,0,0,1,3.4,3.2,10.44,10.44,0,0,1,1.2,4.9,12.53,12.53,0,0,1-1.2,5.4,12.25,12.25,0,0,1-3.4,4.1,17.11,17.11,0,0,1-5.4,2.7A29.47,29.47,0,0,1,267.8,80.4Z"/><path class="cls-1" d="M322.4,77.4l-.9.5c-.6.3-1.2.6-1.9.9a27.59,27.59,0,0,1-2.7.8,12.68,12.68,0,0,1-3.4.3,9.77,9.77,0,0,1-5.9-2,6.55,6.55,0,0,1-2.5-5.5V36.8h-6.5V34.2h6.5V26.7h3v7.5h10.7v2.6H308.1V72a4.74,4.74,0,0,0,1.9,3.8,6.6,6.6,0,0,0,4,1.3,12.41,12.41,0,0,0,2.7-.3,14.16,14.16,0,0,0,2.2-.7c.5-.2,1.1-.5,1.6-.7.2-.1.5-.3.7-.4Z"/><path class="cls-1" d="M360.6,37a18,18,0,0,0-10.9,4,19.53,19.53,0,0,0-6.5,10.1V79.6h-3V34.2h2.9V45.7a21.75,21.75,0,0,1,6.3-7.8,17.14,17.14,0,0,1,8.4-3.6,8.6,8.6,0,0,1,1.6-.1h1.2Z"/><path class="cls-1" d="M387.7,80.4a19.63,19.63,0,0,1-8.6-1.9,23.34,23.34,0,0,1-7-5.1,24.82,24.82,0,0,1-4.7-7.6,25.89,25.89,0,0,1-1.7-9.2,23.22,23.22,0,0,1,1.7-9,22.7,22.7,0,0,1,11.5-12.3,19.41,19.41,0,0,1,8.5-1.8,21.52,21.52,0,0,1,8.7,1.8,23,23,0,0,1,7,5,24.35,24.35,0,0,1,4.7,7.5,25.64,25.64,0,0,1,1.7,9v.7c0,.3,0,.5-.1.6H368.8a23.63,23.63,0,0,0,2,7.8,20,20,0,0,0,10.1,10.3,17.4,17.4,0,0,0,7.1,1.5,15.5,15.5,0,0,0,4.8-.7,17.9,17.9,0,0,0,4.5-1.9,14.79,14.79,0,0,0,3.6-2.9,13.4,13.4,0,0,0,2.5-3.7l2.7.7a15.66,15.66,0,0,1-2.8,4.4,16.58,16.58,0,0,1-4.4,3.5,25.81,25.81,0,0,1-5.4,2.3A16.09,16.09,0,0,1,387.7,80.4Zm18.8-24.7a23.34,23.34,0,0,0-1.8-7.8,21.58,21.58,0,0,0-4.1-6.2,18.14,18.14,0,0,0-5.9-4,16.09,16.09,0,0,0-7.1-1.4,17.07,17.07,0,0,0-7.1,1.5,19.71,19.71,0,0,0-5.8,4.1,21.28,21.28,0,0,0-4,6.2,26.06,26.06,0,0,0-1.8,7.8Z"/><path class="cls-1" d="M442.2,80.4a19.63,19.63,0,0,1-8.6-1.9,23.34,23.34,0,0,1-7-5.1,24.82,24.82,0,0,1-4.7-7.6,25.89,25.89,0,0,1-1.7-9.2,23.22,23.22,0,0,1,1.7-9,22.7,22.7,0,0,1,11.5-12.3,19.41,19.41,0,0,1,8.5-1.8,21.52,21.52,0,0,1,8.7,1.8,23,23,0,0,1,7,5,24.35,24.35,0,0,1,4.7,7.5,25.64,25.64,0,0,1,1.7,9v.7a1.27,1.27,0,0,1-.1.6H423.3a23.63,23.63,0,0,0,2,7.8,20,20,0,0,0,10.1,10.3,17.4,17.4,0,0,0,7.1,1.5,15.5,15.5,0,0,0,4.8-.7,17.9,17.9,0,0,0,4.5-1.9,17.57,17.57,0,0,0,3.7-2.9,13.4,13.4,0,0,0,2.5-3.7l2.7.7a15.66,15.66,0,0,1-2.8,4.4,16.12,16.12,0,0,1-4.3,3.5,25.81,25.81,0,0,1-5.4,2.3A18,18,0,0,1,442.2,80.4Zm18.7-24.7a22.79,22.79,0,0,0-1.8-7.8,21.58,21.58,0,0,0-4.1-6.2,18.14,18.14,0,0,0-5.9-4,16.09,16.09,0,0,0-7.1-1.4,17.07,17.07,0,0,0-7.1,1.5,18.49,18.49,0,0,0-5.8,4.1,21.28,21.28,0,0,0-4,6.2,26.06,26.06,0,0,0-1.8,7.8Z"/><path class="cls-1" d="M496.3,77.4a4.54,4.54,0,0,0-.9.5c-.6.3-1.2.6-1.9.9a27.59,27.59,0,0,1-2.7.8,12.68,12.68,0,0,1-3.4.3,9.77,9.77,0,0,1-5.9-2,6.55,6.55,0,0,1-2.5-5.5V36.8h-6.4V34.2H479V26.7h3v7.5h10.7v2.6H481.9V72a5.08,5.08,0,0,0,1.9,3.9,6.6,6.6,0,0,0,4,1.3,12.41,12.41,0,0,0,2.7-.3,14.16,14.16,0,0,0,2.2-.7c.5-.2,1.1-.5,1.6-.7.2-.1.5-.3.7-.4Z"/></g><path class="cls-1" d="M107.5,33.9a23.4,23.4,0,1,0,23.8,23h0A23.43,23.43,0,0,0,107.5,33.9Zm.7,44.3A20.44,20.44,0,0,1,87.5,58v-.3a20.41,20.41,0,1,1,40.8-1.2v.6a20.54,20.54,0,0,1-19.8,21.2A.37.37,0,0,0,108.2,78.2Z"/><path class="cls-1" d="M89.9,87.4h36a4,4,0,0,1,4,4h0a4,4,0,0,1-4,4h-36a4,4,0,0,1-4-4h0A4,4,0,0,1,89.9,87.4Z"/><path class="cls-1" d="M89.9,99.4h36a4,4,0,0,1,4,4h0a4,4,0,0,1-4,4h-36a4,4,0,0,1-4-4h0A4,4,0,0,1,89.9,99.4Z"/><circle class="cls-1" cx="107.9" cy="57.3" r="23.4"/><circle class="cls-1" cx="107.9" cy="57.3" r="20.8"/></svg>